G04*
G04 #@! TF.GenerationSoftware,Altium Limited,Altium Designer,19.1.7 (138)*
G04*
G04 Layer_Color=2752767*
%FSLAX25Y25*%
%MOIN*%
G70*
G01*
G75*
%ADD11C,0.00394*%
%ADD109C,0.00200*%
D11*
X-1969Y0D02*
X0D01*
Y-1969D02*
Y0D01*
D109*
X49022Y136084D02*
Y137684D01*
X50622D01*
Y136084D01*
X49022D01*
X26175Y141975D02*
Y143575D01*
X27775D01*
Y141975D01*
X26175D01*
X92834Y110789D02*
Y112389D01*
X94434D01*
Y110789D01*
X92834D01*
X73380Y124139D02*
Y125739D01*
X74980D01*
Y124139D01*
X73380D01*
X125353Y72035D02*
Y73635D01*
X126953D01*
Y72035D01*
X125353D01*
X111638Y91233D02*
Y92833D01*
X113238D01*
Y91233D01*
X111638D01*
X142656Y24495D02*
Y26095D01*
X144256D01*
Y24495D01*
X142656D01*
X136335Y47227D02*
Y48827D01*
X137935D01*
Y47227D01*
X136335D01*
X142656Y-26095D02*
Y-24495D01*
X144256D01*
Y-26095D01*
X142656D01*
X144490Y-2573D02*
Y-973D01*
X146090D01*
Y-2573D01*
X144490D01*
X125353Y-73635D02*
Y-72035D01*
X126953D01*
Y-73635D01*
X125353D01*
X135122Y-52158D02*
Y-50558D01*
X136722D01*
Y-52158D01*
X135122D01*
X92835Y-112389D02*
Y-110789D01*
X94434D01*
Y-112389D01*
X92835D01*
X109360Y-95549D02*
Y-93949D01*
X110959D01*
Y-95549D01*
X109360D01*
X49022Y-137684D02*
Y-136084D01*
X50622D01*
Y-137684D01*
X49022D01*
X70310Y-127512D02*
Y-125911D01*
X71910D01*
Y-127512D01*
X70310D01*
X-800Y-146469D02*
Y-144869D01*
X800D01*
Y-146469D01*
X-800D01*
X22684Y-144191D02*
Y-142591D01*
X24284D01*
Y-144191D01*
X22684D01*
X-50622Y-137684D02*
Y-136084D01*
X-49022D01*
Y-137684D01*
X-50622D01*
X-27775Y-143575D02*
Y-141975D01*
X-26175D01*
Y-143575D01*
X-27775D01*
X-94434Y-112389D02*
Y-110789D01*
X-92834D01*
Y-112389D01*
X-94434D01*
X-74980Y-125739D02*
Y-124139D01*
X-73380D01*
Y-125739D01*
X-74980D01*
X-126953Y-73635D02*
Y-72035D01*
X-125353D01*
Y-73635D01*
X-126953D01*
X-113238Y-92833D02*
Y-91233D01*
X-111638D01*
Y-92833D01*
X-113238D01*
X-144256Y-26095D02*
Y-24495D01*
X-142656D01*
Y-26095D01*
X-144256D01*
X-137935Y-48827D02*
Y-47227D01*
X-136335D01*
Y-48827D01*
X-137935D01*
X-144256Y24495D02*
Y26095D01*
X-142656D01*
Y24495D01*
X-144256D01*
X-146090Y973D02*
Y2573D01*
X-144490D01*
Y973D01*
X-146090D01*
X-126953Y72035D02*
Y73635D01*
X-125353D01*
Y72035D01*
X-126953D01*
X-136722Y50558D02*
Y52158D01*
X-135122D01*
Y50558D01*
X-136722D01*
X-94434Y110789D02*
Y112389D01*
X-92834D01*
Y110789D01*
X-94434D01*
X-110960Y93949D02*
Y95549D01*
X-109360D01*
Y93949D01*
X-110960D01*
X-50622Y136084D02*
Y137684D01*
X-49022D01*
Y136084D01*
X-50622D01*
X-71910Y125911D02*
Y127512D01*
X-70310D01*
Y125911D01*
X-71910D01*
X-24284Y142591D02*
Y144191D01*
X-22684D01*
Y142591D01*
X-24284D01*
X-800Y144869D02*
Y146469D01*
X800D01*
Y144869D01*
X-800D01*
M02*
