G04*
G04 #@! TF.GenerationSoftware,Altium Limited,Altium Designer,19.1.7 (138)*
G04*
G04 Layer_Physical_Order=2*
G04 Layer_Color=16711680*
%FSLAX25Y25*%
%MOIN*%
G70*
G01*
G75*
%ADD108C,0.03937*%
G36*
X8551Y195857D02*
X17086Y195298D01*
X25589Y194367D01*
X34043Y193066D01*
X42432Y191397D01*
X50740Y189364D01*
X58951Y186970D01*
X67051Y184221D01*
X75023Y181121D01*
X82852Y177676D01*
X90523Y173893D01*
X98022Y169779D01*
X105334Y165342D01*
X112446Y160590D01*
X119344Y155532D01*
X126015Y150178D01*
X132445Y144539D01*
X138624Y138624D01*
X144539Y132445D01*
X150178Y126015D01*
X155532Y119344D01*
X160590Y112446D01*
X165342Y105334D01*
X169779Y98022D01*
X173893Y90523D01*
X177676Y82852D01*
X181121Y75023D01*
X184221Y67051D01*
X186970Y58951D01*
X189364Y50740D01*
X191397Y42432D01*
X193066Y34043D01*
X194367Y25589D01*
X195298Y17086D01*
X195857Y8551D01*
X196044Y0D01*
X195857Y-8551D01*
X195298Y-17086D01*
X194367Y-25589D01*
X193066Y-34043D01*
X191397Y-42432D01*
X189364Y-50740D01*
X186970Y-58951D01*
X184221Y-67051D01*
X181121Y-75023D01*
X177676Y-82852D01*
X173893Y-90523D01*
X169779Y-98022D01*
X165342Y-105334D01*
X160590Y-112446D01*
X155532Y-119344D01*
X150178Y-126015D01*
X144539Y-132445D01*
X138624Y-138624D01*
X132445Y-144539D01*
X126015Y-150178D01*
X119344Y-155532D01*
X112446Y-160590D01*
X105334Y-165342D01*
X98022Y-169779D01*
X90523Y-173893D01*
X82852Y-177676D01*
X75023Y-181121D01*
X67051Y-184221D01*
X58951Y-186970D01*
X50740Y-189364D01*
X42432Y-191397D01*
X34043Y-193066D01*
X25589Y-194367D01*
X17086Y-195298D01*
X8551Y-195857D01*
X0Y-196044D01*
X-8551Y-195857D01*
X-17086Y-195298D01*
X-25589Y-194367D01*
X-34043Y-193066D01*
X-42432Y-191397D01*
X-50740Y-189364D01*
X-58951Y-186970D01*
X-67051Y-184221D01*
X-75023Y-181121D01*
X-82852Y-177676D01*
X-90523Y-173893D01*
X-98022Y-169779D01*
X-105334Y-165342D01*
X-112446Y-160590D01*
X-119344Y-155532D01*
X-126015Y-150178D01*
X-132445Y-144539D01*
X-138624Y-138624D01*
X-144539Y-132445D01*
X-150178Y-126015D01*
X-155532Y-119344D01*
X-160590Y-112446D01*
X-165342Y-105334D01*
X-169779Y-98022D01*
X-173893Y-90523D01*
X-177676Y-82852D01*
X-181121Y-75023D01*
X-184221Y-67051D01*
X-186970Y-58951D01*
X-189364Y-50740D01*
X-191397Y-42432D01*
X-193066Y-34043D01*
X-194367Y-25589D01*
X-195298Y-17086D01*
X-195857Y-8551D01*
X-196044Y0D01*
X-195857Y8551D01*
X-195298Y17086D01*
X-194367Y25589D01*
X-193066Y34043D01*
X-191397Y42432D01*
X-189364Y50740D01*
X-186970Y58951D01*
X-184221Y67051D01*
X-181121Y75023D01*
X-177676Y82852D01*
X-173893Y90523D01*
X-169779Y98022D01*
X-165342Y105334D01*
X-160590Y112446D01*
X-155532Y119344D01*
X-150178Y126015D01*
X-144539Y132445D01*
X-138624Y138624D01*
X-132445Y144539D01*
X-126015Y150178D01*
X-119344Y155532D01*
X-112446Y160590D01*
X-105334Y165342D01*
X-98022Y169779D01*
X-90523Y173893D01*
X-82852Y177676D01*
X-75023Y181121D01*
X-67051Y184221D01*
X-58951Y186970D01*
X-50740Y189364D01*
X-42432Y191397D01*
X-34043Y193066D01*
X-25589Y194367D01*
X-17086Y195298D01*
X-8551Y195857D01*
X0Y196044D01*
X8551Y195857D01*
D02*
G37*
%LPC*%
G36*
X0Y138646D02*
X-7256Y138456D01*
X-14492Y137886D01*
X-21689Y136939D01*
X-28826Y135616D01*
X-35884Y133922D01*
X-42844Y131860D01*
X-49686Y129437D01*
X-56392Y126659D01*
X-62944Y123534D01*
X-69323Y120071D01*
X-75512Y116278D01*
X-81494Y112167D01*
X-87253Y107748D01*
X-92772Y103034D01*
X-98037Y98037D01*
X-103034Y92772D01*
X-107748Y87253D01*
X-112167Y81494D01*
X-116278Y75512D01*
X-120071Y69323D01*
X-123534Y62944D01*
X-126659Y56392D01*
X-129437Y49686D01*
X-131860Y42844D01*
X-133922Y35884D01*
X-135616Y28826D01*
X-136939Y21689D01*
X-137886Y14492D01*
X-138456Y7256D01*
X-138646Y0D01*
X-138456Y-7256D01*
X-137886Y-14492D01*
X-136939Y-21689D01*
X-135616Y-28826D01*
X-133922Y-35884D01*
X-131860Y-42844D01*
X-129437Y-49686D01*
X-126659Y-56392D01*
X-123534Y-62944D01*
X-120071Y-69323D01*
X-116278Y-75512D01*
X-112167Y-81494D01*
X-107748Y-87253D01*
X-103034Y-92772D01*
X-98037Y-98037D01*
X-92772Y-103034D01*
X-87253Y-107748D01*
X-81494Y-112167D01*
X-75512Y-116278D01*
X-69323Y-120071D01*
X-62944Y-123534D01*
X-56392Y-126659D01*
X-49686Y-129437D01*
X-42844Y-131860D01*
X-35884Y-133922D01*
X-28826Y-135616D01*
X-21689Y-136939D01*
X-14492Y-137886D01*
X-7256Y-138456D01*
X0Y-138646D01*
X7256Y-138456D01*
X14492Y-137886D01*
X21689Y-136939D01*
X28826Y-135616D01*
X35884Y-133922D01*
X42844Y-131860D01*
X49686Y-129437D01*
X56392Y-126659D01*
X62944Y-123534D01*
X69323Y-120071D01*
X75512Y-116278D01*
X81494Y-112167D01*
X87253Y-107748D01*
X92772Y-103034D01*
X98037Y-98037D01*
X103034Y-92772D01*
X107748Y-87253D01*
X112167Y-81494D01*
X116278Y-75512D01*
X120071Y-69323D01*
X123534Y-62944D01*
X126659Y-56392D01*
X129437Y-49686D01*
X131860Y-42844D01*
X133922Y-35884D01*
X135616Y-28826D01*
X136939Y-21689D01*
X137886Y-14492D01*
X138456Y-7256D01*
X138646Y0D01*
X138456Y7256D01*
X137886Y14492D01*
X136939Y21689D01*
X135616Y28826D01*
X133922Y35884D01*
X131860Y42844D01*
X129437Y49686D01*
X126659Y56392D01*
X123534Y62944D01*
X120071Y69323D01*
X116278Y75512D01*
X112167Y81494D01*
X107748Y87253D01*
X103034Y92772D01*
X98037Y98037D01*
X92772Y103034D01*
X87253Y107748D01*
X81494Y112167D01*
X75512Y116278D01*
X69323Y120071D01*
X62944Y123534D01*
X56392Y126659D01*
X49686Y129437D01*
X42844Y131860D01*
X35884Y133922D01*
X28826Y135616D01*
X21689Y136939D01*
X14492Y137886D01*
X7256Y138456D01*
X0Y138646D01*
D02*
G37*
%LPD*%
D108*
X49822Y136884D02*
D03*
X26975Y142775D02*
D03*
X93634Y111589D02*
D03*
X74180Y124939D02*
D03*
X126153Y72835D02*
D03*
X112438Y92033D02*
D03*
X143456Y25295D02*
D03*
X137135Y48027D02*
D03*
X143456Y-25295D02*
D03*
X145290Y-1773D02*
D03*
X126153Y-72835D02*
D03*
X135922Y-51358D02*
D03*
X93634Y-111589D02*
D03*
X110160Y-94749D02*
D03*
X49822Y-136884D02*
D03*
X71110Y-126711D02*
D03*
X0Y-145669D02*
D03*
X23484Y-143391D02*
D03*
X-49822Y-136884D02*
D03*
X-26975Y-142775D02*
D03*
X-93634Y-111589D02*
D03*
X-74180Y-124939D02*
D03*
X-126153Y-72835D02*
D03*
X-112438Y-92033D02*
D03*
X-143456Y-25295D02*
D03*
X-137135Y-48027D02*
D03*
X-143456Y25295D02*
D03*
X-145290Y1773D02*
D03*
X-126153Y72835D02*
D03*
X-135922Y51358D02*
D03*
X-93634Y111589D02*
D03*
X-110160Y94749D02*
D03*
X-49822Y136884D02*
D03*
X-71110Y126711D02*
D03*
X-23484Y143391D02*
D03*
X0Y145669D02*
D03*
M02*
