G04*
G04 #@! TF.GenerationSoftware,Altium Limited,Altium Designer,19.1.7 (138)*
G04*
G04 Layer_Color=65535*
%FSLAX25Y25*%
%MOIN*%
G70*
G01*
G75*
%ADD10C,0.00787*%
%ADD11C,0.00394*%
D10*
X101167Y106097D02*
X105065Y109994D01*
X106178Y101086D02*
X110076Y104983D01*
X145696Y16246D02*
X151187Y16726D01*
X146314Y9186D02*
X151805Y9666D01*
X122052Y-81207D02*
X126567Y-84368D01*
X117988Y-87012D02*
X122503Y-90173D01*
X41299Y-140662D02*
X42726Y-145986D01*
X34454Y-142496D02*
X35880Y-147820D01*
X-147790Y35991D02*
X-142466Y34565D01*
X-145956Y42837D02*
X-140632Y41410D01*
X-61108Y-139295D02*
X-58779Y-134300D01*
X-67531Y-136300D02*
X-65201Y-131305D01*
X-136349Y-67427D02*
X-131353Y-65097D01*
X-139344Y-61004D02*
X-134348Y-58675D01*
X-90079Y122569D02*
X-86917Y118054D01*
X-84274Y126634D02*
X-81112Y122118D01*
X16361Y145686D02*
X16841Y151177D01*
X9301Y146304D02*
X9781Y151795D01*
D11*
X-167761Y-54777D02*
X-147043Y-47236D01*
X-163721Y-65876D02*
X-143004Y-58335D01*
X-5907Y154331D02*
X-5907Y176379D01*
X5904Y176379D02*
X5904Y154331D01*
X-36445Y172673D02*
X-32617Y150961D01*
X-24814Y174724D02*
X-20985Y153012D01*
X-65876Y163722D02*
X-58335Y143004D01*
X-54777Y167761D02*
X-47236Y147043D01*
X-93305Y149795D02*
X-82282Y130701D01*
X-83076Y155701D02*
X-72053Y136607D01*
X-117899Y131317D02*
X-103727Y114428D01*
X-108851Y138909D02*
X-94679Y122020D01*
X-138911Y108849D02*
X-122022Y94677D01*
X-131319Y117897D02*
X-114430Y103725D01*
X-155702Y83074D02*
X-136609Y72050D01*
X-149796Y93302D02*
X-130703Y82279D01*
X-167762Y54774D02*
X-147045Y47234D01*
X-163723Y65873D02*
X-143005Y58332D01*
X-174725Y24810D02*
X-153013Y20982D01*
X-172674Y36442D02*
X-150961Y32614D01*
X154331Y5907D02*
X176379D01*
X154331Y-5904D02*
X176379Y-5904D01*
X150961Y32617D02*
X172673Y36445D01*
X153012Y20985D02*
X174724Y24814D01*
X143004Y58335D02*
X163722Y65876D01*
X147043Y47236D02*
X167761Y54777D01*
X130701Y82282D02*
X149795Y93305D01*
X136607Y72053D02*
X155701Y83076D01*
X114428Y103727D02*
X131317Y117899D01*
X122020Y94679D02*
X138909Y108851D01*
X94677Y122022D02*
X108849Y138911D01*
X103725Y114430D02*
X117897Y131319D01*
X72050Y136609D02*
X83074Y155702D01*
X82279Y130703D02*
X93302Y149796D01*
X47234Y147045D02*
X54774Y167762D01*
X58332Y143005D02*
X65873Y163723D01*
X20982Y153013D02*
X24810Y174725D01*
X32614Y150961D02*
X36442Y172674D01*
X5907Y-176379D02*
X5907Y-154331D01*
X-5904Y-154331D02*
X-5904Y-176379D01*
X32617Y-150961D02*
X36445Y-172673D01*
X20985Y-153012D02*
X24814Y-174724D01*
X58335Y-143004D02*
X65876Y-163721D01*
X47236Y-147043D02*
X54777Y-167761D01*
X82282Y-130701D02*
X93305Y-149795D01*
X72053Y-136607D02*
X83076Y-155701D01*
X103727Y-114428D02*
X117899Y-131317D01*
X94679Y-122020D02*
X108851Y-138909D01*
X122022Y-94677D02*
X138911Y-108849D01*
X114430Y-103725D02*
X131319Y-117897D01*
X136609Y-72050D02*
X155702Y-83074D01*
X130703Y-82279D02*
X149796Y-93302D01*
X147044Y-47234D02*
X167762Y-54774D01*
X143005Y-58332D02*
X163723Y-65873D01*
X153013Y-20982D02*
X174725Y-24810D01*
X150961Y-32614D02*
X172674Y-36442D01*
X-24810Y-174725D02*
X-20982Y-153013D01*
X-36442Y-172674D02*
X-32614Y-150961D01*
X-54774Y-167762D02*
X-47234Y-147044D01*
X-65873Y-163723D02*
X-58332Y-143005D01*
X-83074Y-155702D02*
X-72050Y-136609D01*
X-93302Y-149796D02*
X-82279Y-130703D01*
X-108849Y-138911D02*
X-94677Y-122022D01*
X-117897Y-131319D02*
X-103725Y-114430D01*
X-131317Y-117899D02*
X-114428Y-103727D01*
X-138909Y-108851D02*
X-122020Y-94679D01*
X-149795Y-93305D02*
X-130701Y-82281D01*
X-155701Y-83076D02*
X-136607Y-72053D01*
X-172673Y-36445D02*
X-150961Y-32617D01*
X-174724Y-24814D02*
X-153012Y-20985D01*
X-176379Y-5907D02*
X-154331D01*
X-176379Y5904D02*
X-154331D01*
M02*
