M48
;Layer_Color=9474304
;FILE_FORMAT=2:5
INCH,TZ
;TYPE=PLATED
T1F00S00C0.01968
%
T01
X93634Y-111589
X110160Y-94749
X126153Y-72835
X135922Y-51358
X143456Y-25295
X145290Y-1773
X71110Y-126711
X49822Y-136884
X23484Y-143391
X0Y-145669
X-26975Y-142775
X-49822Y-136884
X-74180Y-124939
X-93634Y-111589
X-112438Y-92033
X-126153Y-72835
X-137135Y-48027
X-143456Y-25295
X-145290Y1773
X-143456Y25295
X-135922Y51358
X-126153Y72835
X-110160Y94749
X-93634Y111589
X-71110Y126711
X-49822Y136884
X-23484Y143391
X0Y145669
X26975Y142775
X49822Y136884
X74180Y124939
X93634Y111589
X112438Y92033
X126153Y72835
X137135Y48027
X143456Y25295
M30
